<svg width="100" height="100" viewBox="0 0 100 100" fill="none" xmlns="http://www.w3.org/2000/svg">
<path d="M22.9167 4.16666C19.4649 4.16666 16.6667 6.96488 16.6667 10.4167V89.5833C16.6667 93.0351 19.4649 95.8333 22.9167 95.8333H77.0834C80.5351 95.8333 83.3334 93.0351 83.3334 89.5833V29.1667L58.3334 4.16666H22.9167Z" fill="#4E8DF5"/>
<path d="M22.9167 95.8333C19.4649 95.8333 16.6667 93.0351 16.6667 89.5833V88.5417C16.6667 91.9934 19.4649 94.7917 22.9167 94.7917H77.0834C80.5351 94.7917 83.3334 91.9934 83.3334 88.5417V89.5833C83.3334 93.0351 80.5351 95.8333 77.0834 95.8333H22.9167Z" fill="#417EE9"/>
<path d="M22.9167 4.16666C19.4649 4.16666 16.6667 6.96488 16.6667 10.4167V11.4583C16.6667 8.00654 19.4649 5.20832 22.9167 5.20832H59.375L58.3334 4.16666H22.9167Z" fill="#639AF6"/>
<path d="M83.3333 50.5208V29.1667L79.6875 25.5208H62.1055C60.7135 25.5208 60.0164 27.2039 61.0007 28.1882L83.3333 50.5208Z" fill="url(#paint0_linear_4_42)"/>
<path d="M58.3333 4.16666L83.3333 29.1667H64.5833C61.1315 29.1667 58.3333 26.3684 58.3333 22.9167V4.16666Z" fill="#A6C5FA"/>
<path d="M66.6666 50H33.3333V54.1667H66.6666V50Z" fill="white"/>
<path d="M66.6666 58.3333H33.3333V62.5H66.6666V58.3333Z" fill="white"/>
<path d="M33.3333 66.6667H66.6666V70.8333H33.3333V66.6667Z" fill="white"/>
<path d="M58.3333 75H33.3333V79.1667H58.3333V75Z" fill="white"/>
<defs>
<linearGradient id="paint0_linear_4_42" x1="70.8333" y1="50.5208" x2="70.8333" y2="25" gradientUnits="userSpaceOnUse">
<stop stop-color="#4E8DF5"/>
<stop offset="1" stop-color="#3D6ACD"/>
</linearGradient>
</defs>
</svg>
